# xmcd
#
# Track frame offsets:
# 150
# 20952
# 48462
# 72825
# 98085
# 119887
# 141525
# 164325
# 182525
# 201825
# 215475
# 243490
# 260130
#
# Disc length: 3690 seconds
#
#
# Revision: 0
# Processed by: cddbd v1.5.1PL0 Copyright (c) Steve Scherf et al.
# Submitted via: FreeRIP 2.60 
#
DISCID=d20e680d
DTITLE=Robert Cray - summertime in England
DYEAR=1989
DGENRE=Blues
TTITLE0=Phone booth
TTITLE1=These things
TTITLE2=Where do I go from here
TTITLE3=Right next door
TTITLE4=Consequences
TTITLE5=Smoking gun
TTITLE6=Nothing but a woman
TTITLE7=Highway
TTITLE8=She's gone
TTITLE9=I'm going home
TTITLE10=Porch light
TTITLE11=Bad influence
TTITLE12=Phone booth
EXTD=BUC 061
EXTT0=Live in California 1989
EXTT1=Live in California 1989
EXTT2=Live in California 1989
EXTT3=Live in California 1989
EXTT4=Live in California 1989
EXTT5=Live in California 1989
EXTT6=Live in California 1989
EXTT7=Glastonbury Festival 1987
EXTT8=Glastonbury Festival 1987
EXTT9=Glastonbury Festival 1987
EXTT10=Glastonbury Festival 1987
EXTT11=Glastonbury Festival 1987
EXTT12=Glastonbury Festival 1987
PLAYORDER=
